# xmcd
#
# Track frame offsets:
#	150
#	19153
#	30162
#	45498
#	60293
#	73135
#	88594
#	100137
#	111468
#	127906
#	146992
#	160026
#	177975
#	198129
#	215193
#	230442
#	241578
#	257596
#	278495
#	292390
#
# Disc length: 4047 seconds
#
# Revision: 1
# Processed by: cddbd v1.5.2PL0 Copyright (c) Steve Scherf et al.
# Submitted via: dBpowerAMP V4.0
#
DISCID=1a0fcd14
DTITLE=Teixeirinha - As 20 Mais
DYEAR=1900
DGENRE=Sertanejo
TTITLE0=Tropeiro Velho
TTITLE1=Motorista Brasileiro
TTITLE2=A Morte Não Marca Hora
TTITLE3=Coração De Luto
TTITLE4=Cobra Sucuri
TTITLE5=Facão Três Listas
TTITLE6=Show No Céu
TTITLE7=Não é Não
TTITLE8=Velho Casarão
TTITLE9=O Desafio De Doutores
TTITLE10=Gaúcho De Passo Fundo
TTITLE11=Tordilho Negro
TTITLE12=Aliança De Ouro
TTITLE13=Querência Amada
TTITLE14=Última Ginetiada
TTITLE15=Briga No Batizado
TTITLE16=Desiludido
TTITLE17=Bota Desafio Nisso
TTITLE18=Chofer De Táxi
TTITLE19=Relho Trançado
EXTD=
EXTT0=
EXTT1=
EXTT2=
EXTT3=
EXTT4=
EXTT5=
EXTT6=
EXTT7=
EXTT8=
EXTT9=
EXTT10=
EXTT11=
EXTT12=
EXTT13=
EXTT14=
EXTT15=
EXTT16=
EXTT17=
EXTT18=
EXTT19=
PLAYORDER=
